<svg fill="none" height="459" viewBox="0 0 965 459" width="965" xmlns="http://www.w3.org/2000/svg"><path d="m0 0h965v459h-965z" fill="#fff"/><path clip-rule="evenodd" d="m646 206c0-2.209 1.791-4 4-4h240c2.209 0 4 1.791 4 4v7c0 2.209-1.791 4-4 4h-240c-2.209 0-4-1.791-4-4z" fill="#ead6c7" fill-rule="evenodd"/><path clip-rule="evenodd" d="m330 206c0-2.209 1.791-4 4-4h194c2.209 0 4 1.791 4 4v7c0 2.209-1.791 4-4 4h-194c-2.209 0-4-1.791-4-4z" fill="#ead6c7" fill-rule="evenodd"/><path clip-rule="evenodd" d="m646 229c0-1.105.895-2 2-2h110c1.105 0 2 .895 2 2v6c0 1.105-.895 2-2 2h-110c-1.105 0-2-.895-2-2z" fill="#fbf2eb" fill-rule="evenodd"/><path clip-rule="evenodd" d="m330 229c0-1.105.895-2 2-2h110c1.105 0 2 .895 2 2v6c0 1.105-.895 2-2 2h-110c-1.105 0-2-.895-2-2z" fill="#fbf2eb" fill-rule="evenodd"/><path clip-rule="evenodd" d="m646 243c0-1.105.895-2 2-2h198c1.105 0 2 .895 2 2v6c0 1.105-.895 2-2 2h-198c-1.105 0-2-.895-2-2z" fill="#fbf2eb" fill-rule="evenodd"/><path clip-rule="evenodd" d="m330 243c0-1.105.895-2 2-2h149c1.105 0 2 .895 2 2v6c0 1.105-.895 2-2 2h-149c-1.105 0-2-.895-2-2z" fill="#fbf2eb" fill-rule="evenodd"/><rect fill="#fbf2eb" height="158" rx="8" width="289" x="646" y="30"/><rect fill="#fbf2eb" height="158" rx="8" width="289" x="330" y="30"/><rect fill="#fbf2eb" height="289" rx="8" width="267" x="31" y="140"/><rect fill="#fff" height="108" rx="8" width="220" x="55" y="303"/><rect fill="#fbf2eb" height="79" rx="8" width="267" x="31" y="30"/><path clip-rule="evenodd" d="m76 232c0-2.209 1.7909-4 4-4h52c2.209 0 4 1.791 4 4v2c0 2.209-1.791 4-4 4h-52c-2.2091 0-4-1.791-4-4z" fill="#ead6c7" fill-rule="evenodd"/><path clip-rule="evenodd" d="m76 252c0-2.209 1.7909-4 4-4h52c2.209 0 4 1.791 4 4v2c0 2.209-1.791 4-4 4h-52c-2.2091 0-4-1.791-4-4z" fill="#ead6c7" fill-rule="evenodd"/><rect fill="#ead6c7" height="10" rx="5" width="10" x="56" y="228"/><rect fill="#ead6c7" height="10" rx="5" width="10" x="56" y="248"/><path d="m809.433 86.0024h-37.859-.001c-4.181.0036-7.568 3.4331-7.572 7.6665v30.6661l-.001-.001c.004 4.232 3.391 7.661 7.571 7.666h37.858-.001c4.18-.005 7.567-3.434 7.572-7.666v-30.6663c-.005-4.2334-3.392-7.6629-7.572-7.6677zm-9.465 7.6665h-.001c3.135-.0012 5.679 2.5742 5.679 5.7498 0 3.1743-2.544 5.7503-5.679 5.7503-3.136 0-5.679-2.576-5.679-5.7503h-.001c.002-3.1744 2.544-5.7474 5.678-5.751zm-28.394 34.4991h-.001c-2.092-.001-3.786-1.717-3.786-3.835v-8.101l11.22-10.098v-.001c2.247-2.019 5.657-1.919 7.785.227l7.684 7.764-13.868 14.041zm41.645-3.833c0 2.116-1.696 3.833-3.786 3.833h-23.469l14.365-14.545v-.001c2.1-1.809 5.183-1.817 7.293-.019l5.597 4.722z" fill="#e9d5c6"/><path d="m493.433 86.0024h-37.859-.001c-4.181.0036-7.568 3.4331-7.572 7.6665v30.6661l-.001-.001c.004 4.232 3.391 7.661 7.571 7.666h37.858-.001c4.18-.005 7.567-3.434 7.572-7.666v-30.6663c-.005-4.2334-3.392-7.6629-7.572-7.6677zm-9.465 7.6665h-.001c3.135-.0012 5.679 2.5742 5.679 5.7498 0 3.1743-2.544 5.7503-5.679 5.7503-3.136 0-5.679-2.576-5.679-5.7503h-.001c.002-3.1744 2.544-5.7474 5.678-5.751zm-28.394 34.4991h-.001c-2.092-.001-3.786-1.717-3.786-3.835v-8.101l11.22-10.098v-.001c2.247-2.019 5.657-1.919 7.785.227l7.684 7.764-13.868 14.041zm41.645-3.833c0 2.116-1.696 3.833-3.786 3.833h-23.469l14.365-14.545v-.001c2.1-1.809 5.183-1.817 7.293-.019l5.597 4.722z" fill="#e9d5c6"/><g clip-rule="evenodd" fill-rule="evenodd"><path d="m56 167c0-2.209 1.7909-4 4-4h146c2.209 0 4 1.791 4 4v7c0 2.209-1.791 4-4 4h-146c-2.2091 0-4-1.791-4-4z" fill="#ead6c7"/><path d="m114 58c0-2.2091 1.791-4 4-4h146c2.209 0 4 1.7909 4 4v7c0 2.2091-1.791 4-4 4h-146c-2.209 0-4-1.7909-4-4z" fill="#ead6c7"/><path d="m56 190c0-1.105.8954-2 2-2h83c1.105 0 2 .895 2 2v6c0 1.105-.895 2-2 2h-83c-1.1046 0-2-.895-2-2z" fill="#fff"/><path d="m114 77c0-1.1046.895-2 2-2h83c1.105 0 2 .8954 2 2v6c0 1.1046-.895 2-2 2h-83c-1.105 0-2-.8954-2-2z" fill="#fff"/><path d="m56 208c0-1.105.8954-2 2-2h113c1.105 0 2 .895 2 2v6c0 1.105-.895 2-2 2h-113c-1.1046 0-2-.895-2-2z" fill="#fff"/><path d="m70 402c-1.1046 0-2-.895-2-2v-20c0-1.105.8954-2 2-2h5.6535c1.1045 0 2 .895 2 2v20c0 1.105-.8955 2-2 2z" fill="#f7e9df"/><path d="m131.782 402c-1.104 0-2-.895-2-2v-20c0-1.105.896-2 2-2h5.654c1.104 0 2 .895 2 2v20c0 1.105-.896 2-2 2z" fill="#f7e9df"/><path d="m193.564 402c-1.104 0-2-.895-2-2v-58c0-1.105.896-2 2-2h5.654c1.104 0 2 .895 2 2v58c0 1.105-.896 2-2 2z" fill="#f7e9df"/><path d="m85.4452 402c-1.1046 0-2-.895-2-2v-36c0-1.105.8954-2 2-2h5.6535c1.1045 0 2 .895 2 2v36c0 1.105-.8955 2-2 2z" fill="#f7e9df"/><path d="m147.228 402c-1.105 0-2-.895-2-2v-44c0-1.105.895-2 2-2h5.653c1.105 0 2 .895 2 2v44c0 1.105-.895 2-2 2z" fill="#f7e9df"/><path d="m209.01 402c-1.105 0-2-.895-2-2v-36c0-1.105.895-2 2-2h5.653c1.105 0 2 .895 2 2v36c0 1.105-.895 2-2 2z" fill="#f7e9df"/><path d="m100.891 402c-1.1042 0-1.9996-.895-1.9996-2v-20c0-1.105.8954-2 1.9996-2h5.654c1.104 0 2 .895 2 2v20c0 1.105-.896 2-2 2z" fill="#f7e9df"/><path d="m162.674 402c-1.105 0-2-.895-2-2v-33c0-1.105.895-2 2-2h5.653c1.105 0 2 .895 2 2v33c0 1.105-.895 2-2 2z" fill="#f7e9df"/><path d="m224.455 402c-1.105 0-2-.895-2-2v-53c0-1.105.895-2 2-2h5.653c1.105 0 2 .895 2 2v53c0 1.105-.895 2-2 2z" fill="#f7e9df"/><path d="m239.901 402c-1.104 0-2-.895-2-2v-63c0-1.105.896-2 2-2h5.654c1.104 0 2 .895 2 2v63c0 1.105-.896 2-2 2z" fill="#f7e9df"/><path d="m116.337 402c-1.105 0-2-.895-2-2v-55c0-1.105.895-2 2-2h5.653c1.105 0 2 .895 2 2v55c0 1.105-.895 2-2 2z" fill="#f7e9df"/><path d="m178.118 402c-1.104 0-2-.895-2-2v-67c0-1.105.896-2 2-2h5.654c1.104 0 2 .895 2 2v67c0 1.105-.896 2-2 2z" fill="#f7e9df"/><path d="m255.346 402c-1.104 0-2-.895-2-2v-82c0-1.105.896-2 2-2h5.654c1.104 0 2 .895 2 2v82c0 1.105-.896 2-2 2z" fill="#f7e9df"/></g><circle cx="77.5" cy="70.5" fill="#e9d5c6" r="20.5"/><rect fill="#fbf2eb" height="31" rx="8" width="605" x="330" y="398"/><path clip-rule="evenodd" d="m373 411c0-1.105.895-2 2-2h56c1.105 0 2 .895 2 2v6c0 1.105-.895 2-2 2h-56c-1.105 0-2-.895-2-2z" fill="#ead6c7" fill-rule="evenodd"/><path clip-rule="evenodd" d="m508 411c0-1.105.895-2 2-2h112c1.105 0 2 .895 2 2v6c0 1.105-.895 2-2 2h-112c-1.105 0-2-.895-2-2z" fill="#ead6c7" fill-rule="evenodd"/><path clip-rule="evenodd" d="m732 411c0-1.105.895-2 2-2h112c1.105 0 2 .895 2 2v6c0 1.105-.895 2-2 2h-112c-1.105 0-2-.895-2-2z" fill="#ead6c7" fill-rule="evenodd"/><circle cx="349" cy="414" fill="#ead6c7" r="7"/><rect fill="#fbf2eb" height="31" rx="8" width="605" x="330" y="358"/><path clip-rule="evenodd" d="m373 371c0-1.105.895-2 2-2h30c1.105 0 2 .895 2 2v6c0 1.105-.895 2-2 2h-30c-1.105 0-2-.895-2-2z" fill="#ead6c7" fill-rule="evenodd"/><path clip-rule="evenodd" d="m508 371c0-1.105.895-2 2-2h63c1.105 0 2 .895 2 2v6c0 1.105-.895 2-2 2h-63c-1.105 0-2-.895-2-2z" fill="#ead6c7" fill-rule="evenodd"/><path clip-rule="evenodd" d="m732 371c0-1.105.895-2 2-2h86c1.105 0 2 .895 2 2v6c0 1.105-.895 2-2 2h-86c-1.105 0-2-.895-2-2z" fill="#ead6c7" fill-rule="evenodd"/><circle cx="349" cy="374" fill="#ead6c7" r="7"/><rect fill="#fbf2eb" height="31" rx="8" width="605" x="330" y="318"/><path clip-rule="evenodd" d="m373 331c0-1.105.895-2 2-2h43c1.105 0 2 .895 2 2v6c0 1.105-.895 2-2 2h-43c-1.105 0-2-.895-2-2z" fill="#ead6c7" fill-rule="evenodd"/><path clip-rule="evenodd" d="m508 331c0-1.105.895-2 2-2h152c1.105 0 2 .895 2 2v6c0 1.105-.895 2-2 2h-152c-1.105 0-2-.895-2-2z" fill="#ead6c7" fill-rule="evenodd"/><path clip-rule="evenodd" d="m732 331c0-1.105.895-2 2-2h46c1.105 0 2 .895 2 2v6c0 1.105-.895 2-2 2h-46c-1.105 0-2-.895-2-2z" fill="#ead6c7" fill-rule="evenodd"/><circle cx="349" cy="334" fill="#ead6c7" r="7"/><rect fill="#fbf2eb" height="31" rx="8" width="605" x="330" y="278"/><path clip-rule="evenodd" d="m373 291c0-1.105.895-2 2-2h64c1.105 0 2 .895 2 2v6c0 1.105-.895 2-2 2h-64c-1.105 0-2-.895-2-2z" fill="#ead6c7" fill-rule="evenodd"/><path clip-rule="evenodd" d="m508 291c0-1.105.895-2 2-2h96c1.105 0 2 .895 2 2v6c0 1.105-.895 2-2 2h-96c-1.105 0-2-.895-2-2z" fill="#ead6c7" fill-rule="evenodd"/><path clip-rule="evenodd" d="m732 291c0-1.105.895-2 2-2h158c1.105 0 2 .895 2 2v6c0 1.105-.895 2-2 2h-158c-1.105 0-2-.895-2-2z" fill="#ead6c7" fill-rule="evenodd"/><circle cx="349" cy="294" fill="#ead6c7" r="7"/><path d="m78 70.0002h-.0004c2.3789 0 4.3077-2.0149 4.3077-4.4999 0-2.4854-1.9288-4.4999-4.3077-4.5003-2.3792-.0004-4.3077 2.0145-4.3081 4.4995v-.0004c-.0003 2.485 1.9285 4.4999 4.3073 4.4999zm0 1.2857c-2.67 0-8 1.7228-8 5.1427v2.5714h16v-2.5714c0-3.4199-5.33-5.1427-8-5.1427z" fill="#fbf2eb"/></svg>