<svg fill="none" height="459" viewBox="0 0 749 459" width="749" xmlns="http://www.w3.org/2000/svg"><path d="m0 0h749v459h-749z" fill="#fff"/><rect fill="#fbf2eb" height="289" rx="8" width="267" x="31" y="140"/><rect fill="#fbf2eb" height="221" rx="8" width="388" x="330" y="30"/><rect fill="#fff" height="108" rx="8" width="220" x="55" y="303"/><rect fill="#fff" height="84" rx="8" width="220" x="354" y="149"/><rect fill="#fbf2eb" height="79" rx="8" width="267" x="31" y="30"/><path clip-rule="evenodd" d="m76 232c0-2.209 1.7909-4 4-4h52c2.209 0 4 1.791 4 4v2c0 2.209-1.791 4-4 4h-52c-2.2091 0-4-1.791-4-4z" fill="#ead6c7" fill-rule="evenodd"/><path clip-rule="evenodd" d="m76 252c0-2.209 1.7909-4 4-4h52c2.209 0 4 1.791 4 4v2c0 2.209-1.791 4-4 4h-52c-2.2091 0-4-1.791-4-4z" fill="#ead6c7" fill-rule="evenodd"/><path clip-rule="evenodd" d="m628 224c0-2.209 1.791-4 4-4h52c2.209 0 4 1.791 4 4v2c0 2.209-1.791 4-4 4h-52c-2.209 0-4-1.791-4-4z" fill="#ead6c7" fill-rule="evenodd"/><path clip-rule="evenodd" d="m628 202c0-2.209 1.791-4 4-4h52c2.209 0 4 1.791 4 4v2c0 2.209-1.791 4-4 4h-52c-2.209 0-4-1.791-4-4z" fill="#ead6c7" fill-rule="evenodd"/><path clip-rule="evenodd" d="m628 181c0-2.209 1.791-4 4-4h52c2.209 0 4 1.791 4 4v2c0 2.209-1.791 4-4 4h-52c-2.209 0-4-1.791-4-4z" fill="#ead6c7" fill-rule="evenodd"/><path clip-rule="evenodd" d="m628 160c0-2.209 1.791-4 4-4h52c2.209 0 4 1.791 4 4v2c0 2.209-1.791 4-4 4h-52c-2.209 0-4-1.791-4-4z" fill="#ead6c7" fill-rule="evenodd"/><rect fill="#ead6c7" height="10" rx="5" width="10" x="56" y="228"/><rect fill="#ead6c7" height="10" rx="5" width="10" x="56" y="248"/><rect fill="#ead6c7" height="10" rx="5" width="10" x="608" y="220"/><rect fill="#ead6c7" height="10" rx="5" width="10" x="608" y="198"/><rect fill="#ead6c7" height="10" rx="5" width="10" x="608" y="177"/><rect fill="#ead6c7" height="10" rx="5" width="10" x="608" y="156"/><g clip-rule="evenodd" fill-rule="evenodd"><path d="m56 167c0-2.209 1.7909-4 4-4h146c2.209 0 4 1.791 4 4v7c0 2.209-1.791 4-4 4h-146c-2.2091 0-4-1.791-4-4z" fill="#ead6c7"/><path d="m355 56c0-2.2091 1.791-4 4-4h277c2.209 0 4 1.7909 4 4v7c0 2.2091-1.791 4-4 4h-277c-2.209 0-4-1.7909-4-4z" fill="#ead6c7"/><path d="m114 58c0-2.2091 1.791-4 4-4h146c2.209 0 4 1.7909 4 4v7c0 2.2091-1.791 4-4 4h-146c-2.209 0-4-1.7909-4-4z" fill="#ead6c7"/><path d="m56 190c0-1.105.8954-2 2-2h83c1.105 0 2 .895 2 2v6c0 1.105-.895 2-2 2h-83c-1.1046 0-2-.895-2-2z" fill="#fff"/><path d="m355 79c0-1.1046.895-2 2-2h203c1.105 0 2 .8954 2 2v6c0 1.1046-.895 2-2 2h-203c-1.105 0-2-.8954-2-2z" fill="#fff"/><path d="m355 99c0-1.1046.895-2 2-2h95c1.105 0 2 .8954 2 2v6c0 1.105-.895 2-2 2h-95c-1.105 0-2-.895-2-2z" fill="#fff"/><path d="m114 77c0-1.1046.895-2 2-2h83c1.105 0 2 .8954 2 2v6c0 1.1046-.895 2-2 2h-83c-1.105 0-2-.8954-2-2z" fill="#fff"/><path d="m56 208c0-1.105.8954-2 2-2h113c1.105 0 2 .895 2 2v6c0 1.105-.895 2-2 2h-113c-1.1046 0-2-.895-2-2z" fill="#fff"/><path d="m70 402c-1.1046 0-2-.895-2-2v-20c0-1.105.8954-2 2-2h5.6535c1.1045 0 2 .895 2 2v20c0 1.105-.8955 2-2 2z" fill="#f7e9df"/><path d="m131.782 402c-1.104 0-2-.895-2-2v-20c0-1.105.896-2 2-2h5.654c1.104 0 2 .895 2 2v20c0 1.105-.896 2-2 2z" fill="#f7e9df"/><path d="m193.564 402c-1.105 0-2-.895-2-2v-58c0-1.105.895-2 2-2h5.653c1.105 0 2 .895 2 2v58c0 1.105-.895 2-2 2z" fill="#f7e9df"/><path d="m85.4453 402c-1.1046 0-2-.895-2-2v-36c0-1.105.8954-2 2-2h5.6535c1.1045 0 2 .895 2 2v36c0 1.105-.8955 2-2 2z" fill="#f7e9df"/><path d="m147.228 402c-1.105 0-2-.895-2-2v-44c0-1.105.895-2 2-2h5.653c1.105 0 2 .895 2 2v44c0 1.105-.895 2-2 2z" fill="#f7e9df"/><path d="m209.01 402c-1.105 0-2-.895-2-2v-36c0-1.105.895-2 2-2h5.653c1.105 0 2 .895 2 2v36c0 1.105-.895 2-2 2z" fill="#f7e9df"/><path d="m100.891 402c-1.1042 0-1.9996-.895-1.9996-2v-20c0-1.105.8954-2 1.9996-2h5.654c1.104 0 2 .895 2 2v20c0 1.105-.896 2-2 2z" fill="#f7e9df"/><path d="m162.674 402c-1.105 0-2-.895-2-2v-33c0-1.105.895-2 2-2h5.653c1.105 0 2 .895 2 2v33c0 1.105-.895 2-2 2z" fill="#f7e9df"/><path d="m224.455 402c-1.104 0-2-.895-2-2v-53c0-1.105.896-2 2-2h5.654c1.104 0 2 .895 2 2v53c0 1.105-.896 2-2 2z" fill="#f7e9df"/><path d="m239.901 402c-1.104 0-2-.895-2-2v-63c0-1.105.896-2 2-2h5.654c1.104 0 2 .895 2 2v63c0 1.105-.896 2-2 2z" fill="#f7e9df"/><path d="m116.337 402c-1.105 0-2-.895-2-2v-55c0-1.105.895-2 2-2h5.653c1.105 0 2 .895 2 2v55c0 1.105-.895 2-2 2z" fill="#f7e9df"/><path d="m178.118 402c-1.104 0-2-.895-2-2v-67c0-1.105.896-2 2-2h5.654c1.104 0 2 .895 2 2v67c0 1.105-.896 2-2 2z" fill="#f7e9df"/><path d="m255.346 402c-1.104 0-2-.895-2-2v-82c0-1.105.896-2 2-2h5.654c1.104 0 2 .895 2 2v82c0 1.105-.896 2-2 2z" fill="#f7e9df"/><path d="m369 224c-1.105 0-2-.895-2-2v-7.721c0-1.104.895-2 2-2h5.653c1.105 0 2 .896 2 2v7.721c0 1.105-.895 2-2 2z" fill="#f7e9df"/><path d="m430.782 224c-1.104 0-2-.895-2-2v-7.721c0-1.104.896-2 2-2h5.654c1.104 0 2 .896 2 2v7.721c0 1.105-.896 2-2 2z" fill="#f7e9df"/><path d="m492.564 224c-1.105 0-2-.895-2-2v-26.279c0-1.105.895-2 2-2h5.653c1.105 0 2 .895 2 2v26.279c0 1.105-.895 2-2 2z" fill="#f7e9df"/><path d="m384.445 224c-1.104 0-2-.895-2-2v-15.535c0-1.104.896-2 2-2h5.654c1.104 0 2 .896 2 2v15.535c0 1.105-.896 2-2 2z" fill="#f7e9df"/><path d="m446.228 224c-1.105 0-2-.895-2-2v-19.442c0-1.104.895-2 2-2h5.653c1.105 0 2 .896 2 2v19.442c0 1.105-.895 2-2 2z" fill="#f7e9df"/><path d="m508.01 224c-1.105 0-2-.895-2-2v-15.535c0-1.104.895-2 2-2h5.653c1.105 0 2 .896 2 2v15.535c0 1.105-.895 2-2 2z" fill="#f7e9df"/><path d="m399.891 224c-1.104 0-2-.895-2-2v-7.721c0-1.104.896-2 2-2h5.654c1.104 0 2 .896 2 2v7.721c0 1.105-.896 2-2 2z" fill="#f7e9df"/><path d="m461.674 224c-1.105 0-2-.895-2-2v-14.07c0-1.104.895-2 2-2h5.653c1.105 0 2 .896 2 2v14.07c0 1.105-.895 2-2 2z" fill="#f7e9df"/><path d="m523.455 224c-1.104 0-2-.895-2-2v-23.837c0-1.105.896-2 2-2h5.654c1.104 0 2 .895 2 2v23.837c0 1.105-.896 2-2 2z" fill="#f7e9df"/><path d="m538.901 224c-1.105 0-2-.895-2-2v-28.721c0-1.105.895-2 2-2h5.653c1.105 0 2 .895 2 2v28.721c0 1.105-.895 2-2 2z" fill="#f7e9df"/><path d="m415.336 224c-1.104 0-2-.895-2-2v-24.814c0-1.105.896-2 2-2h5.654c1.104 0 2 .895 2 2v24.814c0 1.105-.896 2-2 2z" fill="#f7e9df"/><path d="m477.118 224c-1.104 0-2-.895-2-2v-30.674c0-1.105.896-2 2-2h5.654c1.104 0 2 .895 2 2v30.674c0 1.105-.896 2-2 2z" fill="#f7e9df"/><path d="m554.346 224c-1.104 0-2-.895-2-2v-38c0-1.105.896-2 2-2h5.654c1.104 0 2 .895 2 2v38c0 1.105-.896 2-2 2z" fill="#f7e9df"/></g><circle cx="77.5" cy="70.5" fill="#e9d5c6" r="20.5"/><rect fill="#fbf2eb" height="31" rx="8" width="388" x="330" y="398"/><path clip-rule="evenodd" d="m373 411c0-1.105.895-2 2-2h56c1.105 0 2 .895 2 2v6c0 1.105-.895 2-2 2h-56c-1.105 0-2-.895-2-2z" fill="#ead6c7" fill-rule="evenodd"/><path clip-rule="evenodd" d="m508 411c0-1.105.895-2 2-2h112c1.105 0 2 .895 2 2v6c0 1.105-.895 2-2 2h-112c-1.105 0-2-.895-2-2z" fill="#ead6c7" fill-rule="evenodd"/><circle cx="349" cy="414" fill="#ead6c7" r="7"/><rect fill="#fbf2eb" height="31" rx="8" width="388" x="330" y="358"/><path clip-rule="evenodd" d="m373 371c0-1.105.895-2 2-2h30c1.105 0 2 .895 2 2v6c0 1.105-.895 2-2 2h-30c-1.105 0-2-.895-2-2z" fill="#ead6c7" fill-rule="evenodd"/><path clip-rule="evenodd" d="m508 371c0-1.105.895-2 2-2h63c1.105 0 2 .895 2 2v6c0 1.105-.895 2-2 2h-63c-1.105 0-2-.895-2-2z" fill="#ead6c7" fill-rule="evenodd"/><circle cx="349" cy="374" fill="#ead6c7" r="7"/><rect fill="#fbf2eb" height="31" rx="8" width="388" x="330" y="318"/><path clip-rule="evenodd" d="m373 331c0-1.105.895-2 2-2h43c1.105 0 2 .895 2 2v6c0 1.105-.895 2-2 2h-43c-1.105 0-2-.895-2-2z" fill="#ead6c7" fill-rule="evenodd"/><path clip-rule="evenodd" d="m508 331c0-1.105.895-2 2-2h152c1.105 0 2 .895 2 2v6c0 1.105-.895 2-2 2h-152c-1.105 0-2-.895-2-2z" fill="#ead6c7" fill-rule="evenodd"/><circle cx="349" cy="334" fill="#ead6c7" r="7"/><rect fill="#fbf2eb" height="31" rx="8" width="388" x="330" y="278"/><path clip-rule="evenodd" d="m373 291c0-1.105.895-2 2-2h64c1.105 0 2 .895 2 2v6c0 1.105-.895 2-2 2h-64c-1.105 0-2-.895-2-2z" fill="#ead6c7" fill-rule="evenodd"/><path clip-rule="evenodd" d="m508 291c0-1.105.895-2 2-2h96c1.105 0 2 .895 2 2v6c0 1.105-.895 2-2 2h-96c-1.105 0-2-.895-2-2z" fill="#ead6c7" fill-rule="evenodd"/><circle cx="349" cy="294" fill="#ead6c7" r="7"/><path d="m78 70.0002h-.0004c2.3789 0 4.3077-2.0149 4.3077-4.4999 0-2.4854-1.9288-4.4999-4.3077-4.5003-2.3792-.0004-4.3077 2.0145-4.3081 4.4995v-.0004c-.0003 2.485 1.9285 4.4999 4.3073 4.4999zm0 1.2857c-2.67 0-8 1.7228-8 5.1427v2.5714h16v-2.5714c0-3.4199-5.33-5.1427-8-5.1427z" fill="#fbf2eb"/></svg>