<svg fill="none" height="389" viewBox="0 0 309 389" width="309" xmlns="http://www.w3.org/2000/svg"><path d="m0 0h309v389h-309z" fill="#fff"/><g clip-rule="evenodd" fill-rule="evenodd"><path d="m126 131c0-2.209 1.791-4 4-4h130c2.209 0 4 1.791 4 4v7c0 2.209-1.791 4-4 4h-130c-2.209 0-4-1.791-4-4z" fill="#ead6c7"/><path d="m126 154c0-1.105.895-2 2-2h74c1.105 0 2 .895 2 2v6c0 1.105-.895 2-2 2h-74c-1.105 0-2-.895-2-2z" fill="#fbf2eb"/><path d="m126 168c0-1.105.895-2 2-2h129c1.105 0 2 .895 2 2v6c0 1.105-.895 2-2 2h-129c-1.105 0-2-.895-2-2z" fill="#fbf2eb"/><path d="m126 182c0-1.105.895-2 2-2h101c1.105 0 2 .895 2 2v6c0 1.105-.895 2-2 2h-101c-1.105 0-2-.895-2-2z" fill="#fbf2eb"/></g><rect fill="#fbf2eb" height="68" rx="8" width="76" x="31" y="125"/><path d="m79.0023 147.001h-20.0009-.0006c-2.2088.002-3.9983 1.791-4.0002 4v16l-.0006-.001c.0019 2.208 1.7913 3.998 3.9996 4h20.0008-.0006c2.2082-.002 3.9977-1.792 4.0002-4v-15.999c-.0025-2.209-1.792-3.999-4.0002-4.001zm-5.0002 4h-.0006c1.6563 0 3.0001 1.343 3.0001 3 0 1.656-1.3438 3-3.0001 3-1.657 0-3.0002-1.344-3.0002-3h-.0006c.0013-1.656 1.3438-2.999 2.9995-3zm-15.0007 18h-.0006c-1.105-.001-2.0001-.896-2.0001-2.001v-4.227l5.9278-5.268v-.001c1.1869-1.053 2.9882-1.001 4.1127.119l4.0595 4.05-7.3266 7.326zm22.001-2c0 1.104-.8957 2-2.0001 2h-12.3987l7.5891-7.589c1.1095-.944 2.7383-.949 3.8527-.01l2.957 2.463z" fill="#e9d5c6"/><path clip-rule="evenodd" d="m126 214c0-2.209 1.791-4 4-4h130c2.209 0 4 1.791 4 4v7c0 2.209-1.791 4-4 4h-130c-2.209 0-4-1.791-4-4z" fill="#ead6c7" fill-rule="evenodd"/><path clip-rule="evenodd" d="m126 237c0-1.105.895-2 2-2h74c1.105 0 2 .895 2 2v6c0 1.105-.895 2-2 2h-74c-1.105 0-2-.895-2-2z" fill="#fbf2eb" fill-rule="evenodd"/><path clip-rule="evenodd" d="m126 251c0-1.105.895-2 2-2h129c1.105 0 2 .895 2 2v6c0 1.105-.895 2-2 2h-129c-1.105 0-2-.895-2-2z" fill="#fbf2eb" fill-rule="evenodd"/><path clip-rule="evenodd" d="m126 265c0-1.105.895-2 2-2h101c1.105 0 2 .895 2 2v6c0 1.105-.895 2-2 2h-101c-1.105 0-2-.895-2-2z" fill="#fbf2eb" fill-rule="evenodd"/><rect fill="#fbf2eb" height="68" rx="8" width="76" x="31" y="208"/><path d="m79.0023 230.001h-20.0009-.0006c-2.2088.002-3.9983 1.791-4.0002 4v16l-.0006-.001c.0019 2.208 1.7913 3.998 3.9996 4h20.0008-.0006c2.2082-.002 3.9977-1.792 4.0002-4v-15.999c-.0025-2.209-1.792-3.999-4.0002-4.001zm-5.0002 4h-.0006c1.6563 0 3.0001 1.343 3.0001 3 0 1.656-1.3438 3-3.0001 3-1.657 0-3.0002-1.344-3.0002-3h-.0006c.0013-1.656 1.3438-2.999 2.9995-3zm-15.0007 18h-.0006c-1.105-.001-2.0001-.896-2.0001-2.001v-4.227l5.9278-5.268v-.001c1.1869-1.053 2.9882-1.001 4.1127.119l4.0595 4.05-7.3266 7.326zm22.001-2c0 1.104-.8957 2-2.0001 2h-12.3987l7.5891-7.589c1.1095-.944 2.7383-.949 3.8527-.01l2.957 2.463z" fill="#e9d5c6"/><path clip-rule="evenodd" d="m126 297c0-2.209 1.791-4 4-4h130c2.209 0 4 1.791 4 4v7c0 2.209-1.791 4-4 4h-130c-2.209 0-4-1.791-4-4z" fill="#ead6c7" fill-rule="evenodd"/><path clip-rule="evenodd" d="m126 320c0-1.105.895-2 2-2h74c1.105 0 2 .895 2 2v6c0 1.105-.895 2-2 2h-74c-1.105 0-2-.895-2-2z" fill="#fbf2eb" fill-rule="evenodd"/><path clip-rule="evenodd" d="m126 334c0-1.105.895-2 2-2h129c1.105 0 2 .895 2 2v6c0 1.105-.895 2-2 2h-129c-1.105 0-2-.895-2-2z" fill="#fbf2eb" fill-rule="evenodd"/><path clip-rule="evenodd" d="m126 348c0-1.105.895-2 2-2h101c1.105 0 2 .895 2 2v6c0 1.105-.895 2-2 2h-101c-1.105 0-2-.895-2-2z" fill="#fbf2eb" fill-rule="evenodd"/><rect fill="#fbf2eb" height="68" rx="8" width="76" x="31" y="291"/><path d="m79.0023 313.001h-20.0009-.0006c-2.2088.002-3.9983 1.791-4.0002 4v16l-.0006-.001c.0019 2.208 1.7913 3.998 3.9996 4h20.0008-.0006c2.2082-.002 3.9977-1.792 4.0002-4v-15.999c-.0025-2.209-1.792-3.999-4.0002-4.001zm-5.0002 4h-.0006c1.6563 0 3.0001 1.343 3.0001 3 0 1.656-1.3438 3-3.0001 3-1.657 0-3.0002-1.344-3.0002-3h-.0006c.0013-1.656 1.3438-2.999 2.9995-3zm-15.0007 18h-.0006c-1.105-.001-2.0001-.896-2.0001-2.001v-4.227l5.9278-5.268v-.001c1.1869-1.053 2.9882-1.001 4.1127.119l4.0595 4.05-7.3266 7.326zm22.001-2c0 1.104-.8957 2-2.0001 2h-12.3987l7.5891-7.589c1.1095-.944 2.7383-.949 3.8527-.01l2.957 2.463z" fill="#e9d5c6"/><path clip-rule="evenodd" d="m92 40c0-2.2091 1.7909-4 4-4h118c2.209 0 4 1.7909 4 4v7c0 2.2091-1.791 4-4 4h-118c-2.2091 0-4-1.7909-4-4z" fill="#ead6c7" fill-rule="evenodd"/><path clip-rule="evenodd" d="m85 77c0-1.1046.8954-2 2-2h135c1.105 0 2 .8954 2 2v8c0 1.1046-.895 2-2 2h-135c-1.1046 0-2-.8954-2-2z" fill="#fbf2eb" fill-rule="evenodd"/><path clip-rule="evenodd" d="m67 60c0-1.1046.8954-2 2-2h171c1.105 0 2 .8954 2 2v8c0 1.1046-.895 2-2 2h-171c-1.1046 0-2-.8954-2-2z" fill="#fbf2eb" fill-rule="evenodd"/></svg>