<svg fill="none" height="389" viewBox="0 0 309 389" width="309" xmlns="http://www.w3.org/2000/svg"><path d="m0 0h309v389h-309z" fill="#fff"/><g clip-rule="evenodd" fill-rule="evenodd"><path d="m31 146c0-2.209 1.7909-4 4-4h133c2.209 0 4 1.791 4 4v5c0 2.209-1.791 4-4 4h-133c-2.2091 0-4-1.791-4-4z" fill="#ead6c7"/><path d="m31 324c0-2.209 1.7909-4 4-4h196c2.209 0 4 1.791 4 4v5c0 2.209-1.791 4-4 4h-196c-2.2091 0-4-1.791-4-4z" fill="#ead6c7"/><path d="m31 165c0-1.105.8954-2 2-2h155c1.105 0 2 .895 2 2v4c0 1.105-.895 2-2 2h-155c-1.1046 0-2-.895-2-2z" fill="#fbf2eb"/><path d="m31 343c0-1.105.8954-2 2-2h174c1.105 0 2 .895 2 2v4c0 1.105-.895 2-2 2h-174c-1.1046 0-2-.895-2-2z" fill="#fbf2eb"/><path d="m31 177c0-1.105.8954-2 2-2h208c1.105 0 2 .895 2 2v4c0 1.105-.895 2-2 2h-208c-1.1046 0-2-.895-2-2z" fill="#fbf2eb"/><path d="m31 355c0-1.105.8954-2 2-2h124c1.105 0 2 .895 2 2v4c0 1.105-.895 2-2 2h-124c-1.1046 0-2-.895-2-2z" fill="#fbf2eb"/></g><rect fill="#fbf2eb" height="106" rx="8" width="247" x="31" y="25"/><rect fill="#fbf2eb" height="106" rx="8" width="247" x="31" y="203"/><path d="m170.718 59.002h-31.43-.001c-3.471.0029-6.283 2.8361-6.286 6.3331v25.3327l-.001-.001c.003 3.4961 2.815 6.3292 6.285 6.3332h31.43-.001c3.47-.004 6.282-2.8371 6.286-6.3332v-25.3326c-.004-3.4971-2.816-6.3302-6.286-6.3342zm-7.858 6.3331h-.001c2.603-.0009 4.715 2.1266 4.715 4.7499 0 2.6224-2.112 4.7499-4.715 4.7499s-4.714-2.1275-4.714-4.7499h-.001c.002-2.6223 2.112-4.7479 4.713-4.7508zm-23.572 28.4993-.001-.0001c-1.737-.001-3.143-1.418-3.143-3.1676v-6.6923l9.315-8.342v-.001c1.865-1.6674 4.696-1.5853 6.463.188l6.379 6.4133-11.513 11.5996zm34.573-3.1666c0 1.7486-1.408 3.1666-3.143 3.1666h-19.484l11.926-12.0152v-.001c1.743-1.4942 4.303-1.5011 6.054-.0158l4.647 3.9008z" fill="#e9d5c6"/><path d="m170.718 237.002h-31.43-.001c-3.471.003-6.283 2.836-6.286 6.333v25.333l-.001-.001c.003 3.496 2.815 6.329 6.285 6.333h31.43-.001c3.47-.004 6.282-2.837 6.286-6.333v-25.333c-.004-3.497-2.816-6.33-6.286-6.334zm-7.858 6.333h-.001c2.603-.001 4.715 2.127 4.715 4.75 0 2.622-2.112 4.75-4.715 4.75s-4.714-2.128-4.714-4.75h-.001c.002-2.622 2.112-4.748 4.713-4.751zm-23.572 28.499h-.001c-1.737-.001-3.143-1.418-3.143-3.167v-6.693l9.315-8.342v-.001c1.865-1.667 4.696-1.585 6.463.188l6.379 6.414-11.513 11.599zm34.573-3.166c0 1.748-1.408 3.166-3.143 3.166h-19.484l11.926-12.015v-.001c1.743-1.494 4.303-1.501 6.054-.016l4.647 3.901z" fill="#e9d5c6"/></svg>