<svg fill="none" height="459" viewBox="0 0 619 459" width="619" xmlns="http://www.w3.org/2000/svg" xmlns:xlink="http://www.w3.org/1999/xlink"><filter id="a" color-interpolation-filters="sRGB" filterUnits="userSpaceOnUse" height="71" width="411" x="206" y="264"><feFlood flood-opacity="0" result="BackgroundImageFix"/><feBlend in="SourceGraphic" in2="BackgroundImageFix" mode="normal" result="shape"/><feGaussianBlur result="effect1_foregroundBlur" stdDeviation="10"/></filter><path d="m0 0h619v459h-619z" fill="#fff"/><rect fill="#fbf2eb" height="289" rx="8" width="137" x="31" y="140"/><rect fill="#fbf2eb" height="221" rx="8" width="388" x="200" y="30"/><rect fill="#fff" height="84" rx="8" width="220" x="224" y="149"/><rect fill="#fbf2eb" height="79" rx="8" width="137" x="31" y="30"/><path clip-rule="evenodd" d="m72 232c0-2.209 1.7909-4 4-4h52c2.209 0 4 1.791 4 4v2c0 2.209-1.791 4-4 4h-52c-2.2091 0-4-1.791-4-4z" fill="#ead6c7" fill-rule="evenodd"/><path clip-rule="evenodd" d="m72 383c0-2.209 1.7909-4 4-4h52c2.209 0 4 1.791 4 4v2c0 2.209-1.791 4-4 4h-52c-2.2091 0-4-1.791-4-4z" fill="#ead6c7" fill-rule="evenodd"/><path clip-rule="evenodd" d="m72 363c0-2.209 1.7909-4 4-4h52c2.209 0 4 1.791 4 4v2c0 2.209-1.791 4-4 4h-52c-2.2091 0-4-1.791-4-4z" fill="#ead6c7" fill-rule="evenodd"/><path clip-rule="evenodd" d="m72 252c0-2.209 1.7909-4 4-4h52c2.209 0 4 1.791 4 4v2c0 2.209-1.791 4-4 4h-52c-2.2091 0-4-1.791-4-4z" fill="#ead6c7" fill-rule="evenodd"/><path clip-rule="evenodd" d="m72 403c0-2.209 1.7909-4 4-4h52c2.209 0 4 1.791 4 4v2c0 2.209-1.791 4-4 4h-52c-2.2091 0-4-1.791-4-4z" fill="#ead6c7" fill-rule="evenodd"/><path clip-rule="evenodd" d="m498 224c0-2.209 1.791-4 4-4h52c2.209 0 4 1.791 4 4v2c0 2.209-1.791 4-4 4h-52c-2.209 0-4-1.791-4-4z" fill="#ead6c7" fill-rule="evenodd"/><path clip-rule="evenodd" d="m498 202c0-2.209 1.791-4 4-4h52c2.209 0 4 1.791 4 4v2c0 2.209-1.791 4-4 4h-52c-2.209 0-4-1.791-4-4z" fill="#ead6c7" fill-rule="evenodd"/><path clip-rule="evenodd" d="m498 181c0-2.209 1.791-4 4-4h52c2.209 0 4 1.791 4 4v2c0 2.209-1.791 4-4 4h-52c-2.209 0-4-1.791-4-4z" fill="#ead6c7" fill-rule="evenodd"/><path clip-rule="evenodd" d="m498 160c0-2.209 1.791-4 4-4h52c2.209 0 4 1.791 4 4v2c0 2.209-1.791 4-4 4h-52c-2.209 0-4-1.791-4-4z" fill="#ead6c7" fill-rule="evenodd"/><rect fill="#ead6c7" height="10" rx="5" width="10" x="52" y="228"/><rect fill="#ead6c7" height="10" rx="5" width="10" x="52" y="379"/><rect fill="#ead6c7" height="10" rx="5" width="10" x="52" y="359"/><rect fill="#ead6c7" height="10" rx="5" width="10" x="52" y="248"/><rect fill="#ead6c7" height="10" rx="5" width="10" x="52" y="399"/><rect fill="#ead6c7" height="10" rx="5" width="10" x="478" y="220"/><rect fill="#ead6c7" height="10" rx="5" width="10" x="478" y="198"/><rect fill="#ead6c7" height="10" rx="5" width="10" x="478" y="177"/><rect fill="#ead6c7" height="10" rx="5" width="10" x="478" y="156"/><g clip-rule="evenodd" fill-rule="evenodd"><path d="m52 167c0-2.209 1.7909-4 4-4h86c2.209 0 4 1.791 4 4v7c0 2.209-1.791 4-4 4h-86c-2.2091 0-4-1.791-4-4z" fill="#ead6c7"/><path d="m225 56c0-2.2091 1.791-4 4-4h277c2.209 0 4 1.7909 4 4v7c0 2.2091-1.791 4-4 4h-277c-2.209 0-4-1.7909-4-4z" fill="#ead6c7"/><path d="m52 190c0-1.105.8954-2 2-2h49c1.105 0 2 .895 2 2v6c0 1.105-.895 2-2 2h-49c-1.1046 0-2-.895-2-2z" fill="#fff"/><path d="m225 79c0-1.1046.895-2 2-2h203c1.105 0 2 .8954 2 2v6c0 1.1046-.895 2-2 2h-203c-1.105 0-2-.8954-2-2z" fill="#fff"/><path d="m225 99c0-1.1046.895-2 2-2h95c1.105 0 2 .8954 2 2v6c0 1.105-.895 2-2 2h-95c-1.105 0-2-.895-2-2z" fill="#fff"/><path d="m52 277c0-1.105.8954-2 2-2h49c1.105 0 2 .895 2 2v6c0 1.105-.895 2-2 2h-49c-1.1046 0-2-.895-2-2z" fill="#fff"/><path d="m52 315c0-1.105.8954-2 2-2h69c1.105 0 2 .895 2 2v6c0 1.105-.895 2-2 2h-69c-1.1046 0-2-.895-2-2z" fill="#fff"/><path d="m52 208c0-1.105.8954-2 2-2h67c1.105 0 2 .895 2 2v6c0 1.105-.895 2-2 2h-67c-1.1046 0-2-.895-2-2z" fill="#fff"/><path d="m52 296c0-1.105.8954-2 2-2h86c1.105 0 2 .895 2 2v6c0 1.105-.895 2-2 2h-86c-1.1046 0-2-.895-2-2z" fill="#fff"/><path d="m239 224c-1.105 0-2-.895-2-2v-7.721c0-1.104.895-2 2-2h5.653c1.105 0 2 .896 2 2v7.721c0 1.105-.895 2-2 2z" fill="#f7e9df"/><path d="m300.782 224c-1.104 0-2-.895-2-2v-7.721c0-1.104.896-2 2-2h5.654c1.104 0 2 .896 2 2v7.721c0 1.105-.896 2-2 2z" fill="#f7e9df"/><path d="m362.564 224c-1.105 0-2-.895-2-2v-26.279c0-1.105.895-2 2-2h5.653c1.105 0 2 .895 2 2v26.279c0 1.105-.895 2-2 2z" fill="#f7e9df"/><path d="m254.445 224c-1.104 0-2-.895-2-2v-15.535c0-1.104.896-2 2-2h5.654c1.104 0 2 .896 2 2v15.535c0 1.105-.896 2-2 2z" fill="#f7e9df"/><path d="m316.228 224c-1.105 0-2-.895-2-2v-19.442c0-1.104.895-2 2-2h5.653c1.105 0 2 .896 2 2v19.442c0 1.105-.895 2-2 2z" fill="#f7e9df"/><path d="m378.01 224c-1.105 0-2-.895-2-2v-15.535c0-1.104.895-2 2-2h5.653c1.105 0 2 .896 2 2v15.535c0 1.105-.895 2-2 2z" fill="#f7e9df"/><path d="m269.891 224c-1.104 0-2-.895-2-2v-7.721c0-1.104.896-2 2-2h5.654c1.104 0 2 .896 2 2v7.721c0 1.105-.896 2-2 2z" fill="#f7e9df"/><path d="m331.674 224c-1.105 0-2-.895-2-2v-14.07c0-1.104.895-2 2-2h5.653c1.105 0 2 .896 2 2v14.07c0 1.105-.895 2-2 2z" fill="#f7e9df"/><path d="m393.455 224c-1.104 0-2-.895-2-2v-23.837c0-1.105.896-2 2-2h5.654c1.104 0 2 .895 2 2v23.837c0 1.105-.896 2-2 2z" fill="#f7e9df"/><path d="m408.901 224c-1.105 0-2-.895-2-2v-28.721c0-1.105.895-2 2-2h5.653c1.105 0 2 .895 2 2v28.721c0 1.105-.895 2-2 2z" fill="#f7e9df"/><path d="m285.336 224c-1.104 0-2-.895-2-2v-24.814c0-1.105.896-2 2-2h5.654c1.104 0 2 .895 2 2v24.814c0 1.105-.896 2-2 2z" fill="#f7e9df"/><path d="m347.118 224c-1.104 0-2-.895-2-2v-30.674c0-1.105.896-2 2-2h5.654c1.104 0 2 .895 2 2v30.674c0 1.105-.896 2-2 2z" fill="#f7e9df"/><path d="m424.346 224c-1.104 0-2-.895-2-2v-38c0-1.105.896-2 2-2h5.654c1.104 0 2 .895 2 2v38c0 1.105-.896 2-2 2z" fill="#f7e9df"/></g><circle cx="99.5" cy="68.5" fill="#e9d5c6" r="20.5"/><rect fill="#fbf2eb" height="31" rx="8" width="388" x="200" y="398"/><path clip-rule="evenodd" d="m243 411c0-1.105.895-2 2-2h56c1.105 0 2 .895 2 2v6c0 1.105-.895 2-2 2h-56c-1.105 0-2-.895-2-2z" fill="#ead6c7" fill-rule="evenodd"/><path clip-rule="evenodd" d="m378 411c0-1.105.895-2 2-2h112c1.105 0 2 .895 2 2v6c0 1.105-.895 2-2 2h-112c-1.105 0-2-.895-2-2z" fill="#ead6c7" fill-rule="evenodd"/><circle cx="219" cy="414" fill="#ead6c7" r="7"/><rect fill="#fbf2eb" height="31" rx="8" width="388" x="200" y="358"/><path clip-rule="evenodd" d="m243 371c0-1.105.895-2 2-2h30c1.105 0 2 .895 2 2v6c0 1.105-.895 2-2 2h-30c-1.105 0-2-.895-2-2z" fill="#ead6c7" fill-rule="evenodd"/><path clip-rule="evenodd" d="m378 371c0-1.105.895-2 2-2h63c1.105 0 2 .895 2 2v6c0 1.105-.895 2-2 2h-63c-1.105 0-2-.895-2-2z" fill="#ead6c7" fill-rule="evenodd"/><circle cx="219" cy="374" fill="#ead6c7" r="7"/><rect fill="#fbf2eb" height="31" rx="8" width="388" x="200" y="318"/><path clip-rule="evenodd" d="m243 331c0-1.105.895-2 2-2h43c1.105 0 2 .895 2 2v6c0 1.105-.895 2-2 2h-43c-1.105 0-2-.895-2-2z" fill="#ead6c7" fill-rule="evenodd"/><path clip-rule="evenodd" d="m378 331c0-1.105.895-2 2-2h152c1.105 0 2 .895 2 2v6c0 1.105-.895 2-2 2h-152c-1.105 0-2-.895-2-2z" fill="#ead6c7" fill-rule="evenodd"/><circle cx="219" cy="334" fill="#ead6c7" r="7"/><g filter="url(#a)" opacity=".3"><rect fill="#ff6501" height="31" rx="8" width="371" x="226" y="284"/></g><rect fill="#ff6501" height="31" rx="8" width="388" x="214" y="267"/><path clip-rule="evenodd" d="m257 280c0-1.105.895-2 2-2h64c1.105 0 2 .895 2 2v6c0 1.105-.895 2-2 2h-64c-1.105 0-2-.895-2-2z" fill="#ffb585" fill-rule="evenodd"/><path clip-rule="evenodd" d="m392 280c0-1.105.895-2 2-2h96c1.105 0 2 .895 2 2v6c0 1.105-.895 2-2 2h-96c-1.105 0-2-.895-2-2z" fill="#ffb585" fill-rule="evenodd"/><circle cx="233" cy="283" fill="#ffb585" r="7"/><path d="m100 68.0002h-.0004c2.3784 0 4.3074-2.0149 4.3074-4.4999 0-2.4854-1.929-4.4999-4.3074-4.5003-2.3792-.0004-4.3077 2.0145-4.3081 4.4995v-.0004c-.0003 2.485 1.9285 4.4999 4.3073 4.4999zm0 1.2857c-2.67 0-8 1.7228-8 5.1427v2.5714h16v-2.5714c0-3.4199-5.33-5.1427-8-5.1427z" fill="#fbf2eb"/><path d="m354.091 324.733c-9.624 33.62-42.763 57.889-77.961 64.791" stroke="#ff6501" stroke-dasharray="6 6" stroke-linecap="round" stroke-width="2"/><path d="m348.205 322.129c3.291-2.484 6.344-4.616 7.58-9.738.272 2.701 2.211 7.209 5.082 11.965" stroke="#ff6501" stroke-dasharray="6 6" stroke-linecap="round" stroke-width="2"/></svg>